    <svg width="520" height="439" viewBox="0 0 520 439" fill="none" xmlns="http://www.w3.org/2000/svg">
    <path d="M296.055 48.0418L262.498 2.28187L228.916 48.0418L262.498 129.113L296.055 48.0418Z" fill="white"/>
    <path d="M178.114 261.84C151.052 306.332 170.9 364.563 209.045 396.428C209.648 387.763 209.756 379.078 209.409 370.398C207.949 332.178 197.203 294.902 178.114 261.84Z" fill="white"/>
    <path d="M123.844 234.504C128.218 228.616 133.026 223.069 138.229 217.911L141.317 214.955C104.595 173.084 37.1469 161.054 4.92822 214.67C31.3826 180.162 84.1112 182.133 111.003 215.085C88.5374 219.311 68.8767 238.133 69.5715 263.334C74.6153 239.611 101.327 223.148 123.844 234.504Z" fill="white"/>
    <path d="M367.364 162.17C359.86 172.732 350.999 182.243 341.012 190.456C364.945 177.156 393.123 175.911 418.214 165.333C461.318 150.27 508.719 107.959 488.493 57.817C506.944 127.948 422.151 157.867 367.364 162.17Z" fill="white"/>
    <path d="M291.321 159.679C357.766 135.464 355.167 57.9186 332.881 2.07334H321.07C334.992 56.5445 316.849 111.405 291.321 159.679Z" fill="white"/>
    <path d="M204.26 1.14742H192.177C175.687 39.7231 181.32 113.643 181.32 113.643C161.796 94.56 139.778 78.1796 115.86 64.9429C97.2127 48.0845 100.393 16.876 120.244 1.93838C101.483 11.5427 90.535 34.0056 95.6682 54.5477C65.329 40.3198 33.1212 30.4293 0 25.1696C45.6026 38.5386 87.7655 61.5486 123.605 92.6261C101.074 96.852 84.1753 118.027 84.4024 140.761C89.9671 113.259 124.105 97.982 146.864 115.496C150.861 119.903 154.791 124.4 158.516 129.055C170.621 144.13 181.061 160.458 189.656 177.755C164.035 167.405 135.439 168.535 109.228 160.331C66.0728 149.778 17.3529 113.146 33.0251 63.5645C5.76918 144.038 106.888 177.258 167.646 190.568C175.069 186.462 182.799 182.933 190.768 180.015C206.349 174.352 222.591 170.684 239.102 169.099C211.006 117.598 189.156 59.6549 204.26 1.14742Z" fill="white"/>
    <path d="M82.6741 438.258H141.553C129.361 424.365 119.213 408.78 111.419 391.98C106.398 409.845 96.4273 425.899 82.6741 438.258V438.258Z" fill="white"/>
    <path d="M422.636 320.193C408.131 335.995 396.994 354.624 389.912 374.931C382.831 395.238 379.955 416.791 381.462 438.261H444.227C411.519 409.665 402.178 358.667 422.636 320.193Z" fill="white"/>
    <path d="M428.916 140.599C428.919 129.315 425.026 118.381 417.903 109.672C410.78 100.964 400.873 95.0229 389.878 92.8684C424.542 61.6013 466.745 39.5899 511.033 25.7452C478.769 30.9407 447.387 40.6624 417.799 54.6271C422.946 34.2231 412.344 11.7968 393.919 2.23C413.631 17.2413 416.693 49.1048 397.084 65.4643C393.687 67.4347 390.29 69.4051 386.97 71.5051C387.087 80.0871 386.493 88.6638 385.195 97.1462L382.75 108.995C403.955 104.069 424.207 120.065 428.916 140.599Z" fill="white"/>
    <path d="M502.128 188.278C488.557 178.619 472.42 173.29 455.807 172.981C440.219 173.25 424.977 177.659 411.622 185.763C396.768 194.738 383.562 206.228 372.584 219.726C360.342 234.446 349.969 250.645 341.703 267.949C333.107 285.64 326.578 304.276 322.249 323.483C317.982 341.813 316.302 360.656 317.256 379.458C317.935 392.487 320.537 405.34 324.976 417.596C313.505 391.014 306.546 362.68 304.389 333.776C302.18 305.12 304.166 276.293 310.283 248.219C311.981 240.441 313.963 232.663 316.279 224.886C317.437 221.048 318.672 217.237 319.958 213.478L321.966 207.826C322.352 206.763 323.175 202.77 324.102 202.226C308.076 211.502 290.443 217.618 272.145 220.245C268.722 228.386 262.804 245.03 262.804 245.03C260.23 237.641 257.657 230.304 254.595 223.097C240.055 225.456 225.541 228.282 212.314 234.919C226.313 287.653 226.828 344.536 208.994 396.388C230.22 413.508 254.763 425.968 281.049 432.97C291.361 435.705 301.908 437.441 312.547 438.155C316.587 438.415 362.368 437.43 362.445 438C356.989 379.899 356.861 317.987 379.301 263.049C384.129 251.603 389.923 240.596 396.619 230.149C396.673 230.027 396.742 229.914 396.825 229.812C419.368 217.367 447.418 232.689 452.822 257.812C452.807 246.223 448.697 235.019 441.228 226.206C433.758 217.393 423.418 211.548 412.06 209.719C416.168 205.411 420.694 201.529 425.57 198.13C455.962 176.3 495.746 177.751 519.653 208.5C515.129 200.706 509.183 193.845 502.128 188.278V188.278Z" fill="white"/>
    <path d="M196.798 225.274C234.678 204.014 282.312 203.522 320.037 180.032C382.133 143.736 382.802 59.2416 356.682 0C376.24 57.4527 373.049 136.684 312.523 166.629C272.43 186.54 225.929 182.625 184.935 202.251C96.3593 245.419 94.8666 377.772 166.226 438.181H240.134C225.183 427.11 210.746 416.921 197.905 405.98C138.537 365.276 131.975 264.008 196.798 225.274Z" fill="white"/>
    </svg>